<?xml version="1.0" encoding="utf-8"?>
<svg viewBox="189.384 78.54 505.024 287.98" xmlns="http://www.w3.org/2000/svg">
  <g>
    <rect x="189.384" y="78.54" width="505.024" height="287.98" style="fill: rgb(216, 216, 216); stroke: rgb(0, 0, 0);"/>
    <path style="fill: rgb(241, 241, 241); stroke: rgb(255, 255, 255);" d="M 189.384 157.08 C 233.147 157.755 278.444 151.372 312.151 184.392 C 323.342 195.355 330.383 210.505 337.691 224.129 C 357.163 260.429 375.351 299.288 418.162 310.808 C 425.931 312.898 433.793 314.209 441.855 314.158 C 449.592 314.11 457.517 313.169 465.016 311.244 C 526.675 295.42 537.679 220.695 578.881 181.19 C 609.073 152.242 656.485 157.936 694.408 157.08">
      <title>BigPath</title>
    </path>
    <path style="fill: rgb(248, 248, 248); stroke: rgb(12, 12, 12);" d="M 252.637 130.535 C 263.138 131.09 273.068 147.728 282.583 151.698 C 299.538 158.772 314.78 170.769 327.783 185.916 C 359.12 222.42 363.201 283.068 415.425 300.084 C 423.717 302.786 432.183 304.57 440.935 304.537 C 449.135 304.506 457.798 303.318 465.556 300.597 C 518.794 281.926 526.968 216.199 563.537 179.714 C 573.979 169.296 586.789 159.693 600.412 153.117 C 610.467 148.263 620.965 131.568 631.28 130.9">
      <title>SmallPath</title>
    </path>
    <polygon style="fill: rgb(249, 249, 249); stroke: rgb(12, 12, 12);" points="252.637 130.535 631.28 130.9 599.716 152.41 284.076 151.68"/>
  </g>
</svg>