<?xml version="1.0" encoding="utf-8"?>
<svg viewBox="322.206 68.033 644.412 313.227" xmlns="http://www.w3.org/2000/svg">
  <defs>
    <filter id="motion-blur-filter-0" color-interpolation-filters="sRGB" x="-500%" y="-500%" width="1000%" height="1000%">
      <feGaussianBlur stdDeviation="50 0" edgeMode="none"/>
    </filter>
  </defs>
  <g>
    <rect x="322.206" y="68.033" width="644.412" height="313.227" style="fill: rgb(216, 216, 216); stroke: rgb(0, 0, 0);"/>
    <g>
      <path style="stroke-miterlimit: 50; stroke-linecap: round; stroke-linejoin: round; fill-rule: nonzero; paint-order: fill; stroke: rgb(229, 229, 229); fill-opacity: 0.45; fill: rgb(229, 229, 229);" d="M 416.841 149.844 L 426.3368333333333 149.907 C 435.8326666666667 149.97 454.8243333333333 150.096 467.1993333333333 150.159 C 479.5743333333333 150.222 485.3326666666667 150.222 490.145 151.07750000000001 C 494.95733333333334 151.933 498.82366666666667 153.644 501.62566666666663 154.938 C 504.42766666666665 156.232 506.16533333333336 157.109 507.60216666666673 157.975 C 509.039 158.84099999999998 510.175 159.696 511.5115 160.62233333333333 C 512.848 161.54866666666666 514.385 162.54633333333334 516.557 164.14983333333336 C 518.7289999999999 165.75333333333333 521.536 167.96266666666668 524.0143333333333 170.27866666666668 C 526.4926666666667 172.59466666666665 528.6423333333333 175.01733333333334 530.6806666666666 177.547 C 532.719 180.07666666666668 534.6460000000001 182.71333333333334 536.2779999999999 185.06483333333333 C 537.91 187.41633333333334 539.247 189.48266666666666 540.4499999999999 191.54916666666668 C 541.6529999999999 193.61566666666667 542.7220000000001 195.68233333333333 543.7243333333333 197.7023333333333 C 544.7266666666667 199.72233333333335 545.6623333333333 201.69566666666665 548.202 206.64800000000002 C 550.7416666666667 211.60033333333334 554.8853333333333 219.53166666666667 559.4633333333333 228.43949999999998 C 564.0413333333333 237.3473333333333 569.0536666666667 247.23166666666665 572.4286666666667 253.75216666666665 C 575.8036666666667 260.2726666666667 577.5413333333333 263.4293333333333 579.0783333333333 265.7915 C 580.6153333333333 268.15366666666665 581.9516666666667 269.72133333333335 583.3663333333334 271.3958333333333 C 584.7810000000001 273.07033333333334 586.274 274.85166666666663 587.4771666666667 276.17 C 588.6803333333334 277.4883333333333 589.5936666666666 278.34366666666665 590.9525 279.59083333333336 C 592.3113333333332 280.838 594.1156666666666 282.47700000000003 596.2875 284.116 C 598.4593333333333 285.755 600.9986666666667 287.394 603.4715 288.819 C 605.9443333333334 290.24399999999997 608.3506666666666 291.455 610.6231666666666 292.4881666666667 C 612.8956666666667 293.52133333333336 615.0343333333334 294.3766666666667 617.3065 295.19633333333337 C 619.5786666666667 296.016 621.9843333333333 296.8 624.9248333333334 297.54833333333335 C 627.8653333333333 298.2966666666667 631.3406666666666 299.00933333333336 634.7328333333334 299.36566666666664 C 638.125 299.722 641.4340000000001 299.722 644.5750000000002 299.65066666666667 C 647.716 299.5793333333333 650.689 299.43666666666667 653.4788333333333 299.0088333333333 C 656.2686666666667 298.58099999999996 658.8753333333333 297.868 661.7825 296.9773333333333 C 664.6896666666667 296.08666666666664 667.8973333333333 295.0183333333333 670.4703333333333 294.05649999999997 C 673.0433333333334 293.0946666666667 674.9816666666667 292.2393333333334 677.1203333333333 291.0276666666667 C 679.259 289.81600000000003 681.598 288.248 683.8701666666667 286.68033333333335 C 686.1423333333333 285.11266666666666 688.3476666666667 283.5453333333333 690.386 281.87083333333334 C 692.4243333333334 280.1963333333333 694.2956666666668 278.4146666666666 696.1565 276.5975 C 698.0173333333333 274.7803333333333 699.8676666666667 272.92766666666665 701.4383333333334 270.8968333333333 C 703.009 268.866 704.3000000000001 266.657 705.8141666666667 264.3305 C 707.3283333333334 262.00399999999996 709.0656666666667 259.56 710.4021666666666 257.42216666666667 C 711.7386666666666 255.2843333333333 712.6743333333334 253.45266666666666 713.7771666666666 251.39666666666665 C 714.88 249.3406666666667 716.15 247.06033333333335 717.3865 244.9225 C 718.6229999999999 242.78466666666668 719.826 240.78933333333336 721.2295 238.33100000000002 C 722.6329999999999 235.87266666666667 724.2370000000001 232.95133333333334 725.9411666666666 229.88733333333334 C 727.6453333333334 226.82333333333335 729.4496666666668 223.61666666666667 731.3209999999999 220.26733333333334 C 733.1923333333334 216.918 735.1306666666666 213.42600000000002 736.6008333333333 210.63583333333335 C 738.0709999999999 207.8456666666667 739.073 205.75733333333335 740.1088333333333 203.69083333333336 C 741.1446666666667 201.62433333333334 742.2143333333333 199.57966666666667 743.4175 197.41716666666665 C 744.6206666666667 195.25466666666668 745.9573333333333 192.97433333333333 747.4275000000001 190.516 C 748.8976666666667 188.05766666666668 750.5013333333333 185.42133333333334 752.4013333333332 182.67766666666668 C 754.3013333333333 179.934 756.4976666666666 177.083 758.6696666666667 174.66016666666667 C 760.8416666666666 172.23733333333334 762.9893333333333 170.24266666666665 765.1325 168.39016666666666 C 767.2756666666666 166.53766666666664 769.4143333333333 164.8273333333333 771.8536666666668 163.04566666666665 C 774.293 161.26399999999998 777.033 159.41099999999997 779.4723333333333 157.95016666666666 C 781.9116666666667 156.48933333333332 784.0503333333332 155.42066666666668 786.1223333333334 154.60116666666667 C 788.1943333333334 153.78166666666667 790.1996666666668 153.21133333333333 792.2975 152.65166666666667 C 794.3953333333334 152.09199999999998 796.5856666666667 151.543 798.791 151.1398333333333 C 800.9963333333334 150.73666666666668 803.2166666666667 150.47933333333333 806.0321666666667 150.35066666666668 C 808.8476666666667 150.222 812.2583333333333 150.222 818.6001666666666 150.1875 C 824.942 150.153 834.215 150.08399999999997 843.7108333333334 150.08399999999997 C 853.2066666666666 150.08399999999997 862.9253333333332 150.153 867.7846666666668 150.1875 L 872.644 150.222">
        <title>bigPath</title>
      </path>
      <path style="stroke-miterlimit: 50; stroke-linecap: round; stroke-linejoin: round; paint-order: fill; fill-rule: nonzero; stroke: rgb(0, 0, 0); stroke-width: 0px;" d="M 429.608 149.844 L 438.558 149.90383333333332 C 447.508 149.96366666666665 465.40799999999996 150.08333333333334 477.0715 150.14316666666664 C 488.73499999999996 150.203 494.162 150.203 498.69783333333334 151.018 C 503.2336666666667 151.833 506.87833333333333 153.463 509.51933333333335 154.69583333333333 C 512.1603333333334 155.92866666666666 513.7976666666667 156.76433333333333 515.1518333333333 157.58916666666667 C 516.506 158.414 517.577 159.22799999999998 518.8368333333334 160.10966666666667 C 520.0966666666667 160.99133333333333 521.5453333333334 161.94066666666666 523.5925000000001 163.46783333333335 C 525.6396666666667 164.995 528.2853333333334 167.1 530.6215000000001 169.30616666666666 C 532.9576666666667 171.51233333333334 534.9843333333333 173.81966666666668 536.9056666666667 176.229 C 538.8269999999999 178.63833333333332 540.6429999999999 181.1496666666667 542.1809999999999 183.38899999999998 C 543.7189999999999 185.62833333333333 544.9789999999999 187.5956666666667 546.1129999999999 189.56383333333335 C 547.247 191.532 548.255 193.50099999999998 549.1996666666668 195.42549999999997 C 550.1443333333333 197.35 551.0256666666668 199.23000000000002 553.4191666666667 203.9466666666667 C 555.8126666666667 208.66333333333333 559.7183333333334 216.2166666666667 564.0335 224.70016666666666 C 568.3486666666666 233.18366666666668 573.0733333333334 242.59733333333335 576.2543333333333 248.8075 C 579.4353333333333 255.01766666666666 581.0726666666667 258.02433333333335 582.5213333333332 260.27383333333336 C 583.97 262.5233333333333 585.23 264.0156666666667 586.5633333333334 265.6105 C 587.8966666666666 267.20533333333333 589.3033333333334 268.9026666666667 590.4373333333333 270.1586666666667 C 591.5713333333333 271.4146666666667 592.4326666666667 272.22933333333333 593.7133333333333 273.4171666666666 C 594.994 274.60499999999996 596.694 276.166 598.7408333333333 277.727 C 600.7876666666667 279.288 603.1813333333333 280.849 605.5121666666668 282.2058333333334 C 607.843 283.5626666666667 610.111 284.7153333333333 612.2526666666668 285.69933333333336 C 614.3943333333333 286.68333333333334 616.4096666666666 287.4986666666667 618.5513333333333 288.2796666666666 C 620.693 289.0606666666667 622.961 289.80733333333336 625.7326666666667 290.51983333333334 C 628.5043333333333 291.2323333333333 631.7796666666667 291.91066666666666 634.9764999999999 292.2498333333333 C 638.1733333333333 292.589 641.2916666666666 292.589 644.2521666666667 292.5208333333333 C 647.2126666666667 292.45266666666663 650.0153333333333 292.3163333333334 652.6451666666666 291.909 C 655.275 291.50166666666667 657.732 290.8233333333333 660.4721666666666 289.9753333333333 C 663.2123333333333 289.1273333333333 666.2356666666666 288.10966666666667 668.661 287.19350000000003 C 671.0863333333333 286.27733333333333 672.9136666666667 285.4626666666667 674.9295000000001 284.3088333333333 C 676.9453333333333 283.15500000000003 679.1496666666667 281.662 681.2911666666668 280.16900000000004 C 683.4326666666667 278.676 685.5113333333334 277.183 687.4325 275.58816666666667 C 689.3536666666668 273.99333333333334 691.1173333333332 272.2966666666667 692.8711666666667 270.5661666666667 C 694.625 268.83566666666667 696.369 267.07133333333337 697.849 265.137 C 699.3290000000001 263.2026666666667 700.5450000000001 261.09833333333336 701.9721666666668 258.88233333333335 C 703.3993333333333 256.66633333333334 705.0376666666667 254.33866666666668 706.2978333333334 252.30266666666668 C 707.558 250.26666666666665 708.44 248.52233333333334 709.4791666666666 246.564 C 710.5183333333333 244.60566666666668 711.7146666666666 242.4333333333333 712.88 240.39716666666664 C 714.0453333333334 238.361 715.1796666666665 236.461 716.5024999999999 234.11983333333333 C 717.8253333333332 231.77866666666668 719.3366666666666 228.99633333333335 720.9426666666667 226.07816666666665 C 722.5486666666666 223.16 724.2493333333333 220.106 726.0131666666666 216.91633333333334 C 727.777 213.72666666666666 729.6039999999999 210.40133333333333 730.9899999999999 207.74433333333332 C 732.3760000000001 205.0873333333333 733.3209999999999 203.09866666666667 734.2975 201.13016666666667 C 735.274 199.16166666666666 736.282 197.21333333333334 737.4158333333334 195.1535 C 738.5496666666667 193.09366666666665 739.8093333333333 190.92233333333334 741.1948333333333 188.58083333333335 C 742.5803333333333 186.23933333333335 744.0916666666666 183.72766666666666 745.8823333333333 181.11433333333332 C 747.6729999999999 178.501 749.7429999999999 175.78599999999997 751.7903333333334 173.47866666666667 C 753.8376666666667 171.17133333333334 755.8623333333334 169.27166666666668 757.8821666666666 167.50733333333335 C 759.902 165.74300000000002 761.917 164.114 764.2161666666666 162.41733333333335 C 766.5153333333334 160.7206666666667 769.0986666666668 158.95633333333333 771.3981666666667 157.56516666666667 C 773.6976666666666 156.174 775.7133333333335 155.156 777.6661666666668 154.37533333333334 C 779.619 153.59466666666665 781.509 153.05133333333333 783.4863333333333 152.51833333333335 C 785.4636666666667 151.98533333333333 787.5283333333333 151.46266666666668 789.6068333333333 151.0785 C 791.6853333333333 150.69433333333333 793.7776666666667 150.44866666666667 796.4313333333333 150.32583333333332 C 799.085 150.203 802.3000000000001 150.203 808.2775 150.17066666666668 C 814.255 150.13833333333332 822.995 150.07366666666667 831.9451666666668 150.07366666666664 C 840.8953333333334 150.07366666666667 850.0556666666666 150.13833333333332 854.6358333333334 150.17066666666668 L 859.216 150.203">
        <title>innerPath</title>
      </path>
      <polygon style="stroke: rgb(0, 0, 0); filter: url(#motion-blur-filter-0); fill-opacity: 0.45; opacity: 0.6; stroke-width: 0px;" points="805.248 150.749 483.309 149.844 483.309 127.51 805.515 129.955">
        <title>HoriShadow</title>
      </polygon>
    </g>
  </g>
</svg>