<?xml version="1.0" encoding="utf-8"?>
<svg viewBox="189.384 130.9 505.024 183.259" xmlns="http://www.w3.org/2000/svg">
  <defs>
    <filter id="motion-blur-filter-0" color-interpolation-filters="sRGB" x="-500%" y="-500%" width="1000%" height="1000%">
      <feGaussianBlur stdDeviation="50 0" edgeMode="none"/>
    </filter>
  </defs>
  <g>
    <path style="fill: rgb(216, 216, 216); stroke: rgb(0, 0, 0);" d="M 189.384 157.08 C 233.147 157.755 278.444 151.372 312.151 184.392 C 323.342 195.355 330.383 210.505 337.691 224.129 C 357.163 260.429 375.351 299.288 418.162 310.808 C 425.931 312.898 433.793 314.209 441.855 314.158 C 449.592 314.11 457.517 313.169 465.016 311.244 C 526.675 295.42 537.679 220.695 578.881 181.19 C 609.073 152.242 656.485 157.936 694.408 157.08"/>
    <path style="fill: rgb(255, 255, 255);" d="M 215.039 157.08 L 224.4373333333333 157.23133333333337 C 233.83566666666664 157.38266666666667 252.63233333333332 157.68533333333335 263.52099999999996 158.00716666666668 C 274.4096666666666 158.32899999999998 277.39033333333333 158.67 280.0361666666667 159.02816666666664 C 282.68199999999996 159.38633333333334 284.993 159.76166666666666 287.2265 160.28316666666666 C 289.46 160.80466666666666 291.616 161.47233333333332 294.2675 162.52599999999998 C 296.91900000000004 163.57966666666667 300.06600000000003 165.01933333333332 303.3295 166.76733333333334 C 306.593 168.51533333333333 309.973 170.57166666666666 313.09083333333336 172.75633333333334 C 316.20866666666666 174.941 319.0643333333333 177.254 321.5063333333333 179.46433333333334 C 323.9483333333333 181.67466666666667 325.9766666666667 183.78233333333333 327.78316666666666 185.91583333333332 C 329.5896666666667 188.0493333333333 331.1743333333333 190.20866666666666 332.5201666666667 192.2945 C 333.866 194.3803333333333 334.973 196.39266666666666 336.68266666666665 199.42516666666666 C 338.3923333333333 202.45766666666668 340.7046666666667 206.5103333333333 342.64716666666664 210.1303333333333 C 344.5896666666667 213.75033333333332 346.1623333333334 216.93766666666667 347.7355 220.02216666666666 C 349.3086666666666 223.10666666666665 350.8823333333333 226.08833333333334 352.54333333333335 229.35583333333332 C 354.20433333333335 232.62333333333333 355.95266666666674 236.17666666666665 357.84650000000005 239.87783333333334 C 359.74033333333335 243.57899999999998 361.7796666666666 247.428 363.7126666666666 250.86883333333333 C 365.6456666666666 254.30966666666666 367.4723333333333 257.34233333333333 369.6091666666666 260.6575 C 371.7459999999999 263.97266666666667 374.193 267.57033333333334 376.44433333333336 270.6331666666667 C 378.6956666666667 273.69599999999997 380.7513333333333 276.224 382.46066666666667 278.248 C 384.17 280.272 385.5330000000001 281.792 387.2038333333333 283.46750000000003 C 388.87466666666666 285.14300000000003 390.8533333333333 286.974 393.0985 288.6888333333334 C 395.34366666666665 290.40366666666665 397.85533333333336 292.00233333333335 400.29766666666666 293.4171666666667 C 402.74 294.832 405.113 296.063 407.58649999999994 297.1503333333333 C 410.06 298.23766666666666 412.634 299.1813333333333 415.425 300.084 C 418.21600000000007 300.9866666666667 421.224 301.8483333333333 424.1466666666667 302.546 C 427.06933333333336 303.2436666666667 429.9066666666667 303.7773333333333 432.6966666666667 304.10583333333335 C 435.4866666666667 304.4343333333333 438.2293333333334 304.55766666666665 440.93550000000005 304.537 C 443.64166666666665 304.5163333333333 446.3113333333333 304.3516666666667 449.11899999999997 304.0436666666667 C 451.9266666666667 303.7356666666667 454.8723333333333 303.28433333333334 457.6323333333333 302.73033333333336 C 460.3923333333333 302.17633333333333 462.9666666666667 301.51966666666664 465.55649999999997 300.59650000000005 C 468.14633333333336 299.67333333333335 470.7516666666667 298.4836666666667 473.42650000000003 297.1911666666667 C 476.10133333333334 295.89866666666666 478.84566666666666 294.50333333333333 481.46633333333335 292.9236666666667 C 484.087 291.344 486.584 289.58 488.6000000000001 288.0618333333333 C 490.616 286.54366666666664 492.151 285.27133333333336 493.8953333333333 283.6915 C 495.63966666666664 282.1116666666667 497.5933333333333 280.22433333333333 499.384 278.29566666666665 C 501.1746666666667 276.367 502.80233333333337 274.397 504.3605 272.181 C 505.9186666666667 269.965 507.4073333333333 267.503 508.82650000000007 265.123 C 510.2456666666667 262.743 511.5953333333334 260.445 513.0841666666666 258.16749999999996 C 514.573 255.89 516.201 253.633 517.6426666666666 251.1916666666667 C 519.0843333333333 248.75033333333332 520.3396666666666 246.12466666666668 521.6885 243.6626666666667 C 523.0373333333333 241.20066666666665 524.4796666666667 238.90233333333333 525.8631666666666 236.60733333333334 C 527.2466666666667 234.31233333333333 528.5713333333333 232.02066666666667 530.1573333333333 229.24433333333332 C 531.7433333333333 226.468 533.5906666666666 223.207 535.6156666666667 219.87699999999998 C 537.6406666666667 216.547 539.8433333333334 213.148 541.7311666666667 210.07816666666668 C 543.619 207.00833333333333 545.192 204.26766666666666 546.4111666666666 202.1341666666667 C 547.6303333333334 200.00066666666666 548.4956666666667 198.47433333333333 549.6911666666666 196.74 C 550.8866666666667 195.00566666666668 552.4123333333333 193.06333333333336 554.0048333333333 190.97633333333332 C 555.5973333333333 188.88933333333333 557.2566666666667 186.65766666666664 558.8533333333334 184.75549999999998 C 560.45 182.85333333333332 561.984 181.28066666666666 563.5373333333333 179.71366666666668 C 565.0906666666666 178.14666666666668 566.6633333333333 176.58533333333332 568.4331666666667 175.1978333333333 C 570.203 173.81033333333335 572.17 172.59666666666666 574.6543333333333 171.19183333333334 C 577.1386666666666 169.787 580.1403333333334 168.191 582.9845 166.7396666666667 C 585.8286666666667 165.28833333333333 588.5153333333334 163.98166666666668 591.2154999999999 162.96416666666667 C 593.9156666666667 161.9466666666667 596.6293333333333 161.21833333333333 599.887 160.50733333333332 C 603.1446666666667 159.79633333333334 606.9463333333333 159.10266666666666 618.2066666666666 158.53433333333334 C 629.467 157.966 648.186 157.523 657.5455000000001 157.3015 L 666.905 157.08"/>
    <path style="filter: url(#motion-blur-filter-0); fill-opacity: 0.9; stroke-width: 0px; stroke: rgb(255, 255, 255); opacity: 0.9; fill: rgb(255, 255, 255);" d="M 641.492 130.9 L 242.3 130.9 C 252.512 130.9 284.076 151.041 284.076 156.988 C 365.092 165.357 523.466 167.316 599.716 157.08 C 599.716 149.961 631.28 130.9 641.492 130.9 Z"/>
  </g>
</svg>